<?xml version="1.0" encoding="UTF-8"?>
<svg id="Laag_1" data-name="Laag 1" xmlns="http://www.w3.org/2000/svg" version="1.1" viewBox="0 0 512 512">
  <defs>
    <style>
      .cls-1 {
        fill: #fff;
        stroke-width: 0px;
      }
    </style>
  </defs>
  <path class="cls-1" d="M498.1,5.6c10.1,7,15.4,19.1,13.5,31.2l-64,416c-1.5,9.7-7.4,18.2-16,23s-18.9,5.4-28,1.6l-119.6-49.7-68.5,74.1c-8.9,9.7-22.9,12.9-35.2,8.1s-20.3-16.7-20.3-29.9v-83.6c0-4,1.5-7.8,4.2-10.7l167.6-182.9c5.8-6.3,5.6-16-.4-22s-15.7-6.4-22-.7l-203.4,180.7-88.3-44.2c-10.6-5.3-17.4-15.9-17.7-27.7s5.9-22.8,16.1-28.7L464.1,4.2c10.7-6.1,23.9-5.5,34,1.4h0Z"/>
</svg>