<?xml version="1.0" encoding="UTF-8"?>
<svg id="Laag_1" data-name="Laag 1" xmlns="http://www.w3.org/2000/svg" version="1.1" viewBox="0 0 200 200">
  <defs>
    <style>
      .cls-1 {
        fill: #050505;
        stroke-width: 0px;
      }
    </style>
  </defs>
  <path class="cls-1" d="M144.99,23.1c4.93.06,8.82,1.52,12.02,4.74,5.98,6.02,11.99,12,17.98,18.01,5.85,5.87,7.14,12.45,4.02,20.17-1.32,3.28-3.32,6.07-5.81,8.55-30.65,30.65-61.3,61.29-91.92,91.97-1.3,1.3-2.74,2.04-4.47,2.43-15.92,3.59-31.83,7.19-47.75,10.78-4.2.95-6.03-.87-5.09-5.05,3.58-15.82,7.17-31.63,10.72-47.45.44-1.94,1.26-3.54,2.71-4.98,30.54-30.47,61.04-60.98,91.52-91.5,4.59-4.59,9.92-7.42,16.06-7.67ZM78.28,158.55c.95.38,1.54-.41,2.2-1.06,19.3-19.3,38.59-38.61,57.93-57.86,1.19-1.19,1.03-1.79-.06-2.85-3.74-3.63-7.5-7.25-11.04-11.08-1.68-1.82-2.58-1.95-4.44-.07-20.52,20.68-41.15,41.25-61.75,61.85-.43.43-.85.89-1.3,1.3-.68.61-.7,1.08.07,1.69,5.4,4.24,11.34,7.23,18.39,8.09ZM53.89,144.54c.25-.12.48-.17.61-.31,21.47-21.44,42.93-42.9,64.43-64.32,1.14-1.13.86-1.69-.11-2.64-4.02-3.93-8.01-7.88-11.91-11.93-1.14-1.19-1.75-1.05-2.84.05-19.19,19.25-38.4,38.47-57.65,57.66-1.06,1.06-1.35,2.05-1.1,3.52,1.12,6.84,4.18,12.72,8.58,17.96ZM145.58,30c-4.12.25-7.7,1.81-10.68,4.67-2.72,2.62-5.28,5.4-8.07,7.93-1.56,1.42-1.59,2.26-.04,3.78,9.67,9.52,19.23,19.15,28.82,28.74,3.62,3.62,3.67,3.66,7.16.05,3.04-3.14,6.57-5.85,8.8-9.72,2.99-5.19,2.93-10.19-.4-13.59-6.35-6.49-12.82-12.86-19.23-19.29-1.76-1.77-3.94-2.44-6.36-2.58ZM120.16,49.56c-.34.26-.61.41-.83.62-2.68,2.66-5.31,5.38-8.03,7.99-1.1,1.05-.26,1.55.37,2.18,10.54,10.54,21.1,21.06,31.59,31.64,1.2,1.21,1.83,1,2.86-.1,2.24-2.38,4.56-4.68,6.93-6.93,1.02-.96,1.14-1.51.04-2.61-10.59-10.49-21.11-21.05-31.65-31.59-.42-.42-.85-.81-1.29-1.22ZM40.16,134.74c-2.91,12.81-5.66,24.87-8.5,37.35,12.5-2.85,24.59-5.6,37.34-8.51-13.77-5.8-23.03-15.05-28.84-28.84Z"/>
</svg>